<svg xmlns="http://www.w3.org/2000/svg" width="192.48" height="181.35" viewBox="0 0 192.48 181.35"><defs><style>.a{fill:#cdb42a;}.b{fill:#d74ea2;}</style></defs><path class="a" d="M257.48,319.5h-2.14l-4.09,0-.77-4a50.09,50.09,0,0,0-4.7-12.19l-1.52-2.64L240.63,298a70,70,0,0,0-11.94-6.33l-6.1-2.44,4-5.23c6.44-8.47,10.56-24,12.13-34.65l.75-5.05,23,3.89V224.49h24.57v24.82l17.57-6.52,2.09,3.75c6.74,12.12,14.85,29.68,17.37,42.6l.8,4.09-24.25,9.55-1-6.18c-1.37-8.88-6.32-23-12.62-36.13v38.19c0,7.06-1.11,14.11-9.16,17.9l-.1.05C272.53,318.94,265.83,319.5,257.48,319.5Zm.56-13.45c.44,1.16.85,2.33,1.2,3.45,5.62-.07,10.94-.48,14.46-2,1.81-.85,3.36-1.65,3.36-8.82V234.49h-4.57v64.08c0,3.58-2,7.4-7.7,7.45C263.56,306.07,261,306.09,258,306.05Zm-9.58-10.42,2,.13c4.13.27,9.11.33,12.05.31V258.65C258.45,275.49,253.84,287.64,248.46,295.63Zm47.8-39.07c4.76,10.05,9.58,22.32,12.07,32.44l5-2c-2.36-8.71-7.26-20.47-13.31-31.88Zm-58.37,28.3c1.38.69,2.78,1.44,4.11,2.19,3.89-6.95,7.48-17.13,10.69-30.39l-4.95-.84C245.91,265.37,242.64,276.41,237.89,284.86Z" transform="translate(-222.59 -222.23)"/><path class="a" d="M392.08,318.13h-16.2c-7.66,0-13.69-1.63-17.93-4.84a17,17,0,0,1-6.73-14.09,22.48,22.48,0,0,1,.15-2.73h-9v7.46h-22V230.86H359v4a65.19,65.19,0,0,0,3-8.08l1.36-4.56,22.9,5.61L384.62,233c-.25.76-.52,1.54-.81,2.33h27.83v22.29h-9.45l9.55,5.41-2.49,4.36a16.65,16.65,0,0,1-2.54,3.32l-.26.27-.3.22c-4.62,3.41-8.58,6.4-12,9l6.23,3.43a35.07,35.07,0,0,0,10.24,3.65l4.43.82-.36,4.49C413.24,311.21,407.1,318.13,392.08,318.13Zm-24.4-50.68h22l-10.22,8.79c-18.28,15.72-18.28,19.74-18.28,23,0,8.93,11,8.93,14.66,8.93h16.2c6.92,0,10.64-.57,12.22-12.11-.61-.19-1.23-.39-1.84-.6-.8,5.29-3,9.78-9.57,9.78H375.6c-9.68,0-10.73-5.53-10.73-7.91,0-4.93,1.52-8.93,31.65-31.4l-1.47-.83-1.88.19H367.68Zm8.75,27.75H392.3a40.21,40.21,0,0,0,.69-7.36l.23-6.9C383.47,288.48,378.63,292.78,376.43,295.2Zm-46.06-1.27h2v-7.46H349V240.86H330.37ZM359,277.45V282q1.84-2.1,4.29-4.51Zm-1.22-22.12c.9.72,1.8,1.46,2.66,2.19l.24-.32a72.73,72.73,0,0,0,4.95-7.16l1.46-2.43h34.51v-2.29H368.78l3.06-7c.5-1.15,1-2.28,1.42-3.39l-3.12-.76A70.69,70.69,0,0,1,357.82,255.33Zm-10.71,28.31H332.38v-40h14.73Z" transform="translate(-222.59 -222.23)"/><path class="b" d="M258.76,252.61c-3.1,13.92-7.92,31.21-15.2,41.31a74.56,74.56,0,0,0-13-6.91c6.91-9.1,11.37-25.21,13.1-36.95Zm23.3-23.12v69.17c0,7.64-1.64,11.19-6.28,13.37s-11.38,2.55-20.39,2.46a54,54,0,0,0-5.28-13.74c5.64.36,12.56.36,14.56.27s2.82-.63,2.82-2.45V229.49ZM302.35,249c7.19,12.92,14.56,29.48,16.83,41.13l-14.56,5.74c-1.72-11.2-8.37-28.49-15.28-42Z" transform="translate(-222.59 -222.23)"/><path class="b" d="M392.89,300.2c3.28,0,4.74-1.27,5.1-12.19a40.49,40.49,0,0,0,11.74,4.19c-1.37,17.2-6.37,20.93-17.65,20.93h-16.2c-13.56,0-19.66-5.55-19.66-13.93,0-5.37,1.18-10.55,20-26.75H362.68v-9.83c-.64.73-1.18,1.36-1.82,2a87.46,87.46,0,0,0-6.82-5.91v32.76H337.38v7.46h-12V235.86H354v16.2a66.2,66.2,0,0,0,12.83-23.84l13,3.19c-1,3-2.18,6-3.46,8.91h30.22v12.29H370a80.25,80.25,0,0,1-5.28,7.64h28.49l2.91-.36,8.83,5a11.73,11.73,0,0,1-1.73,2.28c-31,22.93-33.31,27.12-33.31,30.12,0,2.19,2.09,2.91,5.73,2.91Zm-50.78-51.6h-4.73v30h4.73Z" transform="translate(-222.59 -222.23)"/><path class="b" d="M270.46,364.69l-5.79-10.86h6l1.8,4c.51,1,1,2.22,1.62,3.66h.12c.51-1.44,1-2.61,1.44-3.66l1.62-4h5.67l-5.76,11.1,6.14,11.25h-6l-2.07-4.35c-.54-1.17-1.05-2.34-1.65-3.72h-.12c-.51,1.38-1,2.55-1.53,3.72L270,376.18h-5.7Z" transform="translate(-222.59 -222.23)"/><path class="b" d="M285.52,354a3,3,0,1,1,3,2.76A2.68,2.68,0,0,1,285.52,354Zm.3,5.13h5.34v17.07h-5.34Z" transform="translate(-222.59 -222.23)"/><path class="b" d="M294.7,371.41c0-3.6,2.82-5.55,9.48-6.27-.12-1.38-.84-2.19-2.58-2.19a9.37,9.37,0,0,0-4.47,1.5l-1.86-3.51a14.2,14.2,0,0,1,7.35-2.25c4.4,0,6.9,2.46,6.9,7.8v9.69h-4.35l-.36-1.71h-.15a7.29,7.29,0,0,1-4.89,2.13A4.93,4.93,0,0,1,294.7,371.41Zm1.71-19.5,2-1.89,4.32,3.06h.12l4.34-3.06,2,1.89-3.68,4.44H300.1Zm7.77,19.2v-2.73c-3.33.42-4.41,1.41-4.41,2.61,0,1,.72,1.47,1.83,1.47A3.36,3.36,0,0,0,304.18,371.11Z" transform="translate(-222.59 -222.23)"/><path class="b" d="M312.67,367.63c0-5.64,4-8.94,8.37-8.94s8.34,3.3,8.34,8.94-4,9-8.34,9S312.67,373.3,312.67,367.63Zm11.25,0c0-2.82-.91-4.62-2.88-4.62s-2.92,1.8-2.92,4.62.9,4.65,2.92,4.65S323.92,370.48,323.92,367.63Z" transform="translate(-222.59 -222.23)"/><path class="b" d="M331.78,367.63a8.64,8.64,0,0,1,9-8.94,7.38,7.38,0,0,1,5,1.83l-2.48,3.39a3.37,3.37,0,0,0-2.16-.9c-2.37,0-3.84,1.8-3.84,4.62s1.55,4.65,3.63,4.65a4.87,4.87,0,0,0,3-1.2l2.08,3.51a8.66,8.66,0,0,1-5.65,2C335.46,376.6,331.78,373.3,331.78,367.63Z" transform="translate(-222.59 -222.23)"/><path class="b" d="M348.84,352.21h5.34V358l-.27,3a7.59,7.59,0,0,1,5.22-2.31c3.72,0,5.31,2.67,5.31,6.93v10.56H359.1v-9.9c0-2.37-.63-3-2-3a4,4,0,0,0-2.94,1.53v11.4h-5.34Z" transform="translate(-222.59 -222.23)"/><path class="b" d="M366.09,352.54h10.29v3.39H366.09Zm2.49,6.57h5.34v17.07h-5.34Z" transform="translate(-222.59 -222.23)"/><path class="b" d="M277,393a1.09,1.09,0,0,1,1.38,1.13,1.17,1.17,0,0,1-1.26,1.18,1.55,1.55,0,0,1-1.39-1.72,3.48,3.48,0,0,1,2.17-3.17l.5.92A2.3,2.3,0,0,0,277,393Zm3.15,0a1.09,1.09,0,0,1,1.38,1.13,1.17,1.17,0,0,1-1.26,1.18,1.55,1.55,0,0,1-1.4-1.72,3.49,3.49,0,0,1,2.18-3.17l.49.92A2.28,2.28,0,0,0,280.13,393Z" transform="translate(-222.59 -222.23)"/><path class="b" d="M283,392.2h2.69v8.93h4.35v2.25h-7Z" transform="translate(-222.59 -222.23)"/><path class="b" d="M291.65,392.28a1.49,1.49,0,1,1,1.49,1.38A1.35,1.35,0,0,1,291.65,392.28Zm.15,2.56h2.67v8.54H291.8Z" transform="translate(-222.59 -222.23)"/><path class="b" d="M297,400.21v-3.28h-1.15v-2l1.31-.11.31-2.26h2.2v2.26h2v2.09h-2v3.25c0,.95.45,1.32,1.08,1.32a2.63,2.63,0,0,0,.78-.16l.42,1.93a6.12,6.12,0,0,1-1.93.32C297.83,403.59,297,402.22,297,400.21Z" transform="translate(-222.59 -222.23)"/><path class="b" d="M303.29,400.21v-3.28h-1.16v-2l1.32-.11.3-2.26H306v2.26h2v2.09h-2v3.25c0,.95.45,1.32,1.08,1.32a2.63,2.63,0,0,0,.78-.16l.42,1.93a6.14,6.14,0,0,1-1.94.32C304.16,403.59,303.29,402.22,303.29,400.21Z" transform="translate(-222.59 -222.23)"/><path class="b" d="M309.62,400.6v-9.21h2.67v9.3c0,.57.25.74.46.74a1.24,1.24,0,0,0,.3,0l.32,2a3.44,3.44,0,0,1-1.32.23C310.22,403.59,309.62,402.39,309.62,400.6Z" transform="translate(-222.59 -222.23)"/><path class="b" d="M314.12,399.1a4.21,4.21,0,0,1,4.05-4.47c2.46,0,3.66,1.79,3.66,4.11a5.05,5.05,0,0,1-.12,1.16h-5a2,2,0,0,0,2.13,1.65,3.5,3.5,0,0,0,1.8-.54l.88,1.6a5.49,5.49,0,0,1-3,1A4.18,4.18,0,0,1,314.12,399.1Zm5.44-1c0-.84-.37-1.47-1.35-1.47a1.58,1.58,0,0,0-1.56,1.47Z" transform="translate(-222.59 -222.23)"/><path class="b" d="M327.18,392.2h7.08v2.24h-4.39v2.07h3.73v2.25h-3.73v2.37h4.56v2.25h-7.25Z" transform="translate(-222.59 -222.23)"/><path class="b" d="M336.05,401c0-1.8,1.41-2.77,4.74-3.13-.06-.69-.42-1.1-1.29-1.1a4.7,4.7,0,0,0-2.24.75l-.93-1.75a7.07,7.07,0,0,1,3.68-1.13c2.2,0,3.45,1.23,3.45,3.9v4.85h-2.18l-.18-.86H341a3.66,3.66,0,0,1-2.45,1.07A2.46,2.46,0,0,1,336.05,401Zm4.74-.15v-1.36c-1.67.21-2.21.7-2.21,1.3s.36.74.92.74A1.69,1.69,0,0,0,340.79,400.84Z" transform="translate(-222.59 -222.23)"/><path class="b" d="M345.53,400.21v-3.28h-1.15v-2l1.31-.11.31-2.26h2.2v2.26h2v2.09h-2v3.25c0,.95.45,1.32,1.08,1.32a2.63,2.63,0,0,0,.78-.16l.42,1.93a6.14,6.14,0,0,1-1.94.32C346.4,403.59,345.53,402.22,345.53,400.21Z" transform="translate(-222.59 -222.23)"/><path class="b" d="M350.94,402.39l1.19-1.67a3.67,3.67,0,0,0,2.16.9c.7,0,1-.25,1-.67s-.82-.75-1.69-1.1c-1-.4-2.18-1.09-2.18-2.52,0-1.6,1.31-2.7,3.3-2.7a4.85,4.85,0,0,1,3,1.1l-1.19,1.59a3.18,3.18,0,0,0-1.77-.72c-.61,0-.9.21-.9.61s.74.71,1.62,1c1.07.41,2.25,1,2.25,2.57s-1.23,2.79-3.55,2.79A5.53,5.53,0,0,1,350.94,402.39Z" transform="translate(-222.59 -222.23)"/><path class="b" d="M359.87,392.82a1.19,1.19,0,0,1-.27,0,1.1,1.1,0,0,1-1.11-1.17,1.17,1.17,0,0,1,1.26-1.18,1.55,1.55,0,0,1,1.39,1.72A3.48,3.48,0,0,1,359,395.4l-.5-.92A2.3,2.3,0,0,0,359.87,392.82Zm3.15,0a1.19,1.19,0,0,1-.27,0,1.1,1.1,0,0,1-1.11-1.17,1.17,1.17,0,0,1,1.26-1.18,1.55,1.55,0,0,1,1.39,1.72,3.48,3.48,0,0,1-2.17,3.17l-.5-.92A2.3,2.3,0,0,0,363,392.82Z" transform="translate(-222.59 -222.23)"/></svg>