<?xml version="1.0" standalone="no"?>
<!DOCTYPE svg PUBLIC "-//W3C//DTD SVG 20010904//EN"
 "http://www.w3.org/TR/2001/REC-SVG-20010904/DTD/svg10.dtd">
<svg version="1.0" xmlns="http://www.w3.org/2000/svg"
 width="6400.000000pt" height="6400.000000pt" viewBox="0 0 6400.000000 6400.000000"
 preserveAspectRatio="xMidYMid meet">
<metadata>
Created by potrace 1.11, written by Peter Selinger 2001-2013
</metadata>
<g transform="translate(0.000000,6400.000000) scale(0.100000,-0.100000)"
fill="#000000" stroke="none">
<path d="M4835 47200 l0 -2750 1150 0 c632 -1 1168 -3 1190 -6 351 -44 540
-166 660 -427 54 -117 111 -332 130 -493 3 -27 8 -58 10 -69 2 -11 7 -56 10
-100 4 -44 9 -96 11 -115 2 -19 7 -118 11 -220 9 -243 9 -19534 -1 -19755 -9
-219 -21 -415 -31 -520 -3 -22 -7 -69 -10 -105 -6 -68 -8 -85 -24 -215 -6 -44
-13 -102 -16 -130 -4 -27 -8 -57 -10 -65 -2 -8 -7 -35 -10 -60 -12 -91 -77
-397 -111 -524 -132 -496 -340 -915 -604 -1220 -228 -263 -546 -488 -895 -632
-179 -74 -525 -175 -675 -198 -19 -3 -46 -8 -60 -11 -55 -11 -76 -14 -110 -19
-19 -2 -69 -9 -110 -15 -338 -46 -755 -63 -1160 -47 -172 8 -202 9 -310 20
-36 4 -87 8 -115 11 -60 5 -138 14 -180 20 -16 2 -52 7 -80 10 -45 6 -189 27
-270 41 -95 15 -156 26 -200 34 -94 19 -210 42 -225 45 -8 2 -46 10 -85 19
-38 8 -110 25 -160 36 -49 12 -97 23 -105 25 -100 19 -718 202 -795 234 -11 5
-92 35 -180 66 -187 67 -451 179 -583 246 -59 29 -95 43 -97 36 -2 -7 -3
-1292 -2 -2856 l2 -2844 30 -17 c17 -9 59 -29 95 -44 36 -16 83 -37 106 -47
22 -10 65 -28 95 -39 30 -12 68 -27 84 -35 50 -22 216 -86 290 -112 39 -13 79
-28 90 -33 50 -21 327 -113 500 -164 105 -32 213 -64 240 -73 28 -8 57 -16 65
-18 8 -2 50 -13 92 -25 43 -11 85 -23 95 -25 10 -2 81 -20 158 -40 77 -19 149
-37 160 -39 11 -2 40 -9 65 -15 52 -13 55 -14 180 -41 98 -22 316 -67 360 -75
14 -3 50 -9 80 -15 30 -6 66 -12 80 -15 14 -3 50 -9 80 -15 30 -6 66 -12 80
-15 14 -3 36 -7 50 -9 14 -3 43 -8 65 -11 91 -13 111 -16 125 -20 8 -2 38 -7
65 -10 28 -4 57 -8 65 -10 22 -6 60 -12 192 -30 65 -9 125 -18 135 -19 10 -2
43 -7 74 -10 31 -4 65 -8 75 -10 11 -2 46 -7 79 -10 33 -4 74 -9 90 -11 69 -9
194 -24 250 -30 33 -3 71 -8 85 -10 14 -2 61 -6 105 -10 44 -3 94 -8 110 -10
17 -3 57 -7 90 -10 100 -9 168 -15 220 -20 53 -6 160 -14 255 -20 86 -5 230
-15 290 -20 55 -4 231 -15 345 -20 121 -6 372 -17 455 -20 699 -28 1819 -24
2460 10 69 4 154 8 190 10 92 5 247 15 300 20 25 2 88 7 140 10 52 3 106 8
120 10 14 3 63 7 110 10 47 3 96 8 110 10 14 2 54 6 90 10 36 3 81 8 100 10
19 2 62 7 95 10 33 4 71 8 85 10 14 1 50 6 80 9 30 4 73 9 95 12 72 10 89 12
145 19 30 4 64 9 75 11 11 2 44 7 74 10 30 3 64 8 75 10 12 2 39 7 61 9 22 3
65 10 95 15 30 5 70 12 88 15 80 13 102 17 182 31 112 21 108 20 160 30 25 4
47 8 50 9 3 1 25 5 50 9 51 9 369 78 560 121 30 7 368 94 445 115 298 80 782
240 1035 342 175 70 400 164 470 196 96 44 519 253 585 290 341 188 675 402
956 614 90 68 175 133 189 145 14 11 67 56 119 99 219 182 537 488 696 669 33
37 67 75 76 84 45 45 242 289 350 433 110 147 300 427 375 551 16 27 36 61 45
75 19 30 115 199 160 279 38 67 208 408 247 494 48 105 156 358 181 424 13 33
29 74 36 90 46 105 206 583 270 806 52 181 159 596 171 664 3 17 9 46 14 65 9
35 56 263 64 310 2 14 7 36 10 50 3 14 8 36 10 50 2 14 11 67 20 118 30 175
45 267 52 317 3 28 8 57 9 67 2 9 6 38 10 65 4 26 8 59 10 73 4 26 12 88 20
152 2 21 6 53 9 70 6 36 12 88 21 183 3 33 8 71 10 85 3 14 7 61 11 105 3 44
7 91 9 105 3 14 7 68 10 120 4 52 8 106 10 120 2 14 7 72 10 130 3 58 8 132
10 165 5 69 15 267 20 370 15 321 18 1932 20 10400 2 5313 5 9678 8 9700 3 22
8 76 12 120 3 44 8 94 10 110 3 17 7 50 10 75 25 215 81 422 155 575 114 237
270 373 520 454 36 12 76 24 90 26 14 3 36 7 50 10 48 10 172 26 228 30 31 1
467 3 967 4 l910 1 0 2750 0 2750 -8760 0 -8760 0 0 -2750z"/>
<path d="M23645 47200 l0 -2750 1030 -1 c566 0 1046 -2 1065 -4 57 -6 152 -16
195 -21 54 -6 188 -40 253 -65 260 -96 427 -291 521 -609 30 -104 56 -223 66
-310 3 -25 8 -54 10 -65 2 -11 7 -54 10 -95 4 -41 8 -86 10 -100 2 -14 7 -90
11 -170 10 -188 10 -21659 0 -21850 -7 -152 -12 -219 -21 -310 -13 -120 -16
-146 -20 -160 -2 -8 -7 -37 -10 -65 -11 -88 -66 -297 -101 -384 -103 -255
-258 -412 -493 -495 -69 -25 -132 -42 -191 -52 -14 -2 -34 -6 -45 -9 -20 -4
-117 -14 -205 -20 -25 -2 -504 -4 -1065 -4 l-1020 -1 0 -2747 0 -2748 8760 0
8760 0 0 2748 0 2747 -910 1 c-882 1 -975 2 -1060 13 -22 3 -60 8 -85 11 -137
19 -349 96 -411 151 -8 8 -19 14 -22 14 -17 0 -113 92 -168 160 -108 134 -207
399 -249 670 -6 41 -13 86 -15 99 -3 14 -7 54 -11 90 -3 36 -8 80 -10 96 -16
122 -19 806 -19 4545 l0 4225 5274 0 c4943 0 5274 -1 5280 -17 8 -23 5 -8268
-3 -8498 -4 -102 -9 -201 -11 -220 -1 -19 -6 -72 -9 -117 -4 -46 -9 -93 -12
-105 -2 -13 -6 -45 -9 -73 -34 -322 -148 -620 -296 -773 -124 -128 -270 -199
-504 -244 -107 -21 -142 -21 -1110 -25 -550 -2 -1001 -6 -1004 -9 -3 -3 -5
-5430 -2 -5481 1 -10 1760 -13 8759 -13 l8759 0 0 2750 0 2750 -1001 0 c-1120
1 -1118 1 -1291 31 -323 55 -541 209 -674 474 -64 128 -125 324 -147 473 -3
20 -7 44 -9 52 -7 26 -19 124 -30 255 -4 39 -8 86 -10 105 -15 154 -18 1672
-18 11015 0 9420 3 10911 17 11030 3 17 7 64 10 105 4 41 9 86 11 100 2 14 7
48 10 75 3 28 8 57 10 65 2 8 6 33 10 55 10 69 55 243 80 310 109 288 258 452
500 548 129 51 282 81 465 92 25 2 500 3 1056 4 l1011 1 -1 2748 -1 2747
-8757 3 c-7003 2 -8758 0 -8759 -10 0 -7 -1 -1245 -2 -2750 l-2 -2738 920 0
c1061 -1 1047 0 1235 -35 231 -43 414 -150 537 -313 79 -105 172 -338 198
-497 3 -16 10 -52 15 -80 8 -45 16 -95 25 -166 2 -14 6 -59 10 -100 4 -41 8
-90 10 -109 15 -149 18 -868 19 -4308 1 -2599 -2 -3916 -9 -3922 -5 -4 -2383
-8 -5283 -8 l-5273 1 4 4051 c2 2228 7 4071 10 4096 3 25 9 79 12 120 13 148
34 295 61 410 6 28 6 29 23 90 7 25 15 53 16 62 2 10 19 56 38 103 128 313
316 476 642 558 69 18 136 27 285 42 19 2 449 4 955 4 l920 1 0 2750 0 2750
-8760 0 -8760 0 0 -2750z"/>
</g>
</svg>
